<svg viewBox="0 0 50 41" fill="none" xmlns="http://www.w3.org/2000/svg"><path d="M50 4.854a21.219 21.219 0 0 1-5.906 1.633A10.27 10.27 0 0 0 48.604.77a20.37 20.37 0 0 1-6.5 2.504A10.228 10.228 0 0 0 34.615 0C28.94 0 24.372 4.649 24.372 10.348c0 .82.069 1.608.237 2.359-8.522-.42-16.062-4.542-21.128-10.821a10.489 10.489 0 0 0-1.403 5.23c0 3.582 1.828 6.758 4.553 8.596-1.647-.031-3.262-.514-4.631-1.274v.114c0 5.027 3.553 9.203 8.213 10.165-.835.23-1.744.34-2.688.34-.656 0-1.319-.037-1.94-.176 1.327 4.096 5.096 7.108 9.578 7.206A20.477 20.477 0 0 1 2.452 36.5c-.84 0-1.647-.037-2.453-.142C4.54 39.314 9.922 41 15.725 41 34.587 41 44.9 25.23 44.9 11.562c0-.457-.016-.899-.038-1.337C46.897 8.768 48.606 6.948 50 4.854Z" fill="#1ABBDE"/></svg>