<svg viewBox="0 0 20 15" fill="none" xmlns="http://www.w3.org/2000/svg"><path fill-rule="evenodd" clip-rule="evenodd" d="M14.61 4.424c1.2-.714 1.564-2.199.813-3.316-.751-1.117-2.333-1.444-3.534-.73-1.2.715-1.563 2.2-.812 3.317.752 1.117 2.333 1.443 3.533.73ZM8.778 1.497c.75 1.117.387 2.601-.813 3.316-1.2.714-2.782.388-3.533-.73-.751-1.117-.388-2.601.812-3.316 1.2-.714 2.783-.387 3.534.73ZM3.924 9.659c1.2-.715 1.564-2.2.813-3.317-.751-1.117-2.333-1.443-3.534-.73-1.2.715-1.563 2.2-.812 3.317.751 1.117 2.333 1.444 3.533.73Zm6.06-3.545c-2.015-.003-5.586 4.217-5.695 5.922-.105 1.626 1.316 2.953 2.945 2.955l5.47.009c1.629.003 3.053-1.319 2.954-2.945-.103-1.706-3.66-5.937-5.675-5.941Zm9.365-.225c.751 1.118.387 2.602-.813 3.317-1.2.714-2.782.387-3.533-.73-.751-1.117-.387-2.601.813-3.316 1.2-.714 2.782-.388 3.533.73Z" fill="#CCE2F1"/></svg>