<svg viewBox="0 0 20 20" fill="none" xmlns="http://www.w3.org/2000/svg"><path d="M19.354 9.452c-4.437 0-5.971-1.113-6.832-1.974-.86-.864-1.976-2.396-1.976-6.833C10.546.476 10.53 0 10 0c-.525 0-.546.476-.546.645 0 4.437-1.116 5.969-1.976 6.833-.863.86-2.398 1.974-6.832 1.974-.17 0-.645.02-.645.549 0 .525.475.544.645.544 4.434 0 5.969 1.116 6.832 1.978.86.86 1.976 2.396 1.976 6.832 0 .17.02.645.546.645.53 0 .547-.475.547-.645 0-4.436 1.115-5.971 1.976-6.832.86-.863 2.395-1.978 6.832-1.978.17 0 .646-.016.646-.546 0-.526-.477-.547-.646-.547Z" fill="#1ABBDE"/></svg>