<svg viewBox="0 0 112 100" fill="none" xmlns="http://www.w3.org/2000/svg"><mask id="a" maskUnits="userSpaceOnUse" x="0" y="0" width="112" height="100" fill="#000"><path fill="#fff" d="M0 0h112v100H0z"/><path fill-rule="evenodd" clip-rule="evenodd" d="M90.787 88.052a7.342 7.342 0 0 0-1.238-2.61l.241-.135c.183-.102.367-.201.552-.3.404-.219.808-.437 1.2-.675 3.308-2.007 6.129-4.6 8.586-7.565 5.052-6.096 7.766-13.103 8.064-21.015a33.379 33.379 0 0 0-.571-7.345 38.311 38.311 0 0 0-5.57-13.969h-.001c-.125-.199-.251-.397-.36-.595a35.773 35.773 0 0 0-3.457-5.229 19.767 19.767 0 0 0-1.422-1.632 1.178 1.178 0 0 1-.399-.768l-.034-.49c-.034-.497-.068-.998-.124-1.495-.137-1.2-.283-2.406-.458-3.597-.184-1.25-.485-2.478-.786-3.705-.078-.317-.156-.634-.232-.952A44.545 44.545 0 0 0 92.4 8.528a49.3 49.3 0 0 0-1.312-2.764 9.277 9.277 0 0 0-.798-1.232c-.912-1.247-2.168-1.664-3.67-1.497a16.525 16.525 0 0 0-4.149 1.082 46.329 46.329 0 0 0-11.64 6.668.784.784 0 0 1-.738.174c-2.467-.544-4.946-1.026-7.473-1.2l-1.003-.072c-1.287-.092-2.575-.185-3.864-.214a86.716 86.716 0 0 0-5.409.045c-1.705.068-3.41.203-5.108.371a51.376 51.376 0 0 0-6.127 1.074.71.71 0 0 1-.672-.14 46.873 46.873 0 0 0-10.68-6.307c-1.648-.697-3.34-1.28-5.135-1.479-1.531-.173-2.814.26-3.725 1.544-.363.507-.69 1.038-.982 1.588a37.527 37.527 0 0 0-2.156 5.11c-.508 1.462-.883 2.96-1.258 4.459l-.232.922a41.996 41.996 0 0 0-1.14 6.043c-.079.723-.143 1.447-.207 2.171-.038.426-.076.851-.117 1.277a1.03 1.03 0 0 1-.227.679c-.367.37-.74.758-1.08 1.165a36.201 36.201 0 0 0-3.35 4.73c-.133.226-.264.454-.394.681-.262.455-.523.91-.803 1.356-3.548 5.645-5.56 11.78-5.91 18.439-.125 2.502.04 5.01.493 7.473A34.527 34.527 0 0 0 9.804 75.15a38.264 38.264 0 0 0 5.002 5.493 29.558 29.558 0 0 0 6.634 4.675c.069.041.135.086.2.135-.088.13-.162.244-.236.357a7.016 7.016 0 0 0-1.055 2.547 2.766 2.766 0 0 0 .906 2.729 4.05 4.05 0 0 0 3.324 1.062 9.031 9.031 0 0 0 5.501-2.807c.15-.156.291-.322.434-.491l.21-.247c.154.036.307.069.46.102.317.068.632.135.937.231a59.785 59.785 0 0 0 6.821 1.727c.108.028.215.063.32.103v.507c.027.852.192 1.695.486 2.497a3.805 3.805 0 0 0 1.166 1.645 4.403 4.403 0 0 0 5.972-.448 7.576 7.576 0 0 0 1.476-2.52l.122-.32.048-.124.327.025c2.255.168 4.499.336 6.755.336 2.125 0 4.239-.153 6.35-.307l.717-.052.004.012c.074.203.133.364.195.526.292.793.71 1.535 1.239 2.195 1.129 1.366 2.565 1.886 4.308 1.521 1.556-.326 2.645-1.207 3.113-2.741a13.61 13.61 0 0 0 .355-1.787c.037-.221.05-.45.062-.678.006-.105.012-.21.02-.314l.124-.034c.066-.018.124-.034.183-.046a59.336 59.336 0 0 0 6.702-1.697 9.063 9.063 0 0 1 1.033-.259c.16-.033.32-.067.479-.104a8.574 8.574 0 0 0 2.206 2.076c1.208.776 2.5 1.34 3.949 1.479a4.1 4.1 0 0 0 3.546-1.322 2.546 2.546 0 0 0 .712-1.975c-.02-.271-.061-.54-.124-.804Z"/></mask><path fill-rule="evenodd" clip-rule="evenodd" d="M90.787 88.052a7.342 7.342 0 0 0-1.238-2.61l.241-.135c.183-.102.367-.201.552-.3.404-.219.808-.437 1.2-.675 3.308-2.007 6.129-4.6 8.586-7.565 5.052-6.096 7.766-13.103 8.064-21.015a33.379 33.379 0 0 0-.571-7.345 38.311 38.311 0 0 0-5.57-13.969h-.001c-.125-.199-.251-.397-.36-.595a35.773 35.773 0 0 0-3.457-5.229 19.767 19.767 0 0 0-1.422-1.632 1.178 1.178 0 0 1-.399-.768l-.034-.49c-.034-.497-.068-.998-.124-1.495-.137-1.2-.283-2.406-.458-3.597-.184-1.25-.485-2.478-.786-3.705-.078-.317-.156-.634-.232-.952A44.545 44.545 0 0 0 92.4 8.528a49.3 49.3 0 0 0-1.312-2.764 9.277 9.277 0 0 0-.798-1.232c-.912-1.247-2.168-1.664-3.67-1.497a16.525 16.525 0 0 0-4.149 1.082 46.329 46.329 0 0 0-11.64 6.668.784.784 0 0 1-.738.174c-2.467-.544-4.946-1.026-7.473-1.2l-1.003-.072c-1.287-.092-2.575-.185-3.864-.214a86.716 86.716 0 0 0-5.409.045c-1.705.068-3.41.203-5.108.371a51.376 51.376 0 0 0-6.127 1.074.71.71 0 0 1-.672-.14 46.873 46.873 0 0 0-10.68-6.307c-1.648-.697-3.34-1.28-5.135-1.479-1.531-.173-2.814.26-3.725 1.544-.363.507-.69 1.038-.982 1.588a37.527 37.527 0 0 0-2.156 5.11c-.508 1.462-.883 2.96-1.258 4.459l-.232.922a41.996 41.996 0 0 0-1.14 6.043c-.079.723-.143 1.447-.207 2.171-.038.426-.076.851-.117 1.277a1.03 1.03 0 0 1-.227.679c-.367.37-.74.758-1.08 1.165a36.201 36.201 0 0 0-3.35 4.73c-.133.226-.264.454-.394.681-.262.455-.523.91-.803 1.356-3.548 5.645-5.56 11.78-5.91 18.439-.125 2.502.04 5.01.493 7.473A34.527 34.527 0 0 0 9.804 75.15a38.264 38.264 0 0 0 5.002 5.493 29.558 29.558 0 0 0 6.634 4.675c.069.041.135.086.2.135-.088.13-.162.244-.236.357a7.016 7.016 0 0 0-1.055 2.547 2.766 2.766 0 0 0 .906 2.729 4.05 4.05 0 0 0 3.324 1.062 9.031 9.031 0 0 0 5.501-2.807c.15-.156.291-.322.434-.491l.21-.247c.154.036.307.069.46.102.317.068.632.135.937.231a59.785 59.785 0 0 0 6.821 1.727c.108.028.215.063.32.103v.507c.027.852.192 1.695.486 2.497a3.805 3.805 0 0 0 1.166 1.645 4.403 4.403 0 0 0 5.972-.448 7.576 7.576 0 0 0 1.476-2.52l.122-.32.048-.124.327.025c2.255.168 4.499.336 6.755.336 2.125 0 4.239-.153 6.35-.307l.717-.052.004.012c.074.203.133.364.195.526.292.793.71 1.535 1.239 2.195 1.129 1.366 2.565 1.886 4.308 1.521 1.556-.326 2.645-1.207 3.113-2.741a13.61 13.61 0 0 0 .355-1.787c.037-.221.05-.45.062-.678.006-.105.012-.21.02-.314l.124-.034c.066-.018.124-.034.183-.046a59.336 59.336 0 0 0 6.702-1.697 9.063 9.063 0 0 1 1.033-.259c.16-.033.32-.067.479-.104a8.574 8.574 0 0 0 2.206 2.076c1.208.776 2.5 1.34 3.949 1.479a4.1 4.1 0 0 0 3.546-1.322 2.546 2.546 0 0 0 .712-1.975c-.02-.271-.061-.54-.124-.804Z" fill="#fff" fill-opacity=".94"/><path d="m89.549 85.442-1.465-2.619-2.985 1.67 2.045 2.743 2.405-1.794Zm1.238 2.61 2.92-.687-.004-.02-.005-.02-2.91.727Zm-.997-2.745-1.453-2.625-.011.006 1.464 2.619Zm.552-.3 1.424 2.64-1.424-2.64Zm1.2-.675-1.556-2.565-.005.003 1.56 2.562Zm8.586-7.565-2.31-1.914 2.31 1.914Zm8.064-21.015 2.998.112v-.013l-2.998-.1Zm-.571-7.345-2.95.542.001.01.002.01 2.947-.562Zm-5.57-13.969-2.52 1.629.005.008 2.515-1.637Zm-.001 0-2.535 1.604.008.012.008.012 2.519-1.628Zm-.36-.595-2.639 1.428.007.011.006.012 2.626-1.451Zm-3.457-5.229-2.366 1.845.009.011.01.012 2.347-1.868Zm-1.422-1.632 2.15-2.091-.087-.09-.094-.082-1.97 2.263Zm-.399-.768-2.992.218.003.044.005.044 2.984-.306Zm-.034-.49 2.993-.204-2.993.204Zm-.124-1.495 2.982-.333-.001-.008-2.98.341Zm-.458-3.597-2.968.437 2.968-.437Zm-.786-3.705 2.913-.715-2.913.715Zm-.232-.952-2.926.659.004.019.005.019 2.917-.697ZM92.4 8.528l2.767-1.16-.007-.017-.007-.016-2.753 1.193Zm-1.312-2.764 2.673-1.36-.016-.033-.018-.032-2.64 1.425Zm-.798-1.232-2.422 1.77.02.027.02.027 2.382-1.824Zm-3.67-1.497L86.288.053l-.022.003-.021.002.374 2.977ZM82.47 4.117l1.1 2.791.013-.005.015-.006-1.128-2.78Zm-11.64 6.668-1.852-2.36-.084.065-.078.072 2.014 2.223Zm-.346.182-.691-2.92.691 2.92Zm-.392-.008.802-2.89-.078-.022-.078-.017-.646 2.93Zm-7.473-1.2.207-2.994h-.002l-.205 2.993Zm-1.003-.072.215-2.992-.215 2.992Zm-3.864-.214.07-3h-.002l-.068 3Zm-5.409.045.119 2.998-.119-2.998Zm-5.108.371-.297-2.985-.02.002-.02.002.337 2.981Zm-6.127 1.074-.696-2.918-.095.023-.093.028.884 2.867Zm-.672-.14 1.963-2.27-.054-.046-.055-.043-1.854 2.358Zm-10.68-6.307 1.17-2.762-.002-.001-1.169 2.763ZM24.62 3.037l-.336 2.981h.007l.33-2.981Zm-3.725 1.544 2.44 1.744.006-.007-2.446-1.737Zm-.982 1.588-2.652-1.402-.009.017-.009.018 2.67 1.367Zm-2.156 5.11 2.834.984.005-.012.004-.013-2.843-.96ZM16.5 15.738l-2.91-.729 2.91.729Zm-.232.922 2.9.771.004-.016.004-.015-2.908-.74Zm-1.14 6.043-2.981-.34-.001.01-.001.008 2.982.322Zm-.207 2.171 2.988.266-2.988-.266Zm-.117 1.277-2.986-.285-.018.19.006.192 2.998-.097Zm-.227.679 2.133 2.109.108-.109.095-.119-2.336-1.881Zm-1.08 1.165 2.302 1.924.004-.004-2.305-1.92Zm-3.35 4.73-2.579-1.532-.004.006-.003.006 2.586 1.52Zm-.394.681-2.601-1.495 2.6 1.495Zm-.803 1.356 2.54 1.596.003-.004-2.543-1.592ZM3.04 53.2l-2.995-.157v.006l2.996.15Zm.493 7.473 2.953-.531-.002-.01-2.95.541ZM9.804 75.15l-2.408 1.79.004.005 2.404-1.795Zm5.002 5.493 2.049-2.192-.018-.017-.02-.017-2.01 2.226Zm6.634 4.675 1.556-2.565-.088-.054-.093-.048-1.375 2.666Zm.2.135 2.492 1.67 1.581-2.362-2.271-1.707-1.802 2.398Zm-.236.357 2.492 1.67.01-.016.011-.015-2.513-1.64Zm-1.055 2.547 2.924.67.01-.044.01-.045-2.944-.581Zm.07 1.49 2.848-.945-2.847.945Zm.836 1.239 2.054-2.186-.053-.05-.055-.047-1.946 2.283Zm1.541.906.913-2.858-.913 2.858Zm1.783.156-.369-2.977-.017.002-.017.002.403 2.973Zm5.501-2.807-2.162-2.08-.017.018-.017.018 2.196 2.044Zm.434-.491 2.291 1.936-2.291-1.936Zm.21-.247.693-2.92-1.765-.418-1.19 1.368 2.263 1.97Zm.46.102.629-2.934-.629 2.934Zm.937.231.906-2.86h-.003l-.903 2.86Zm6.821 1.727.75-2.904-.092-.024-.094-.018-.564 2.946Zm.32.103h3v-2.048l-1.909-.746-1.092 2.794Zm0 .507h-3v.099l3-.1Zm.486 2.497 2.82-1.024-.004-.01-2.816 1.034Zm1.166 1.645-1.9 2.322.015.012.015.011 1.87-2.345Zm3.075.948.225 2.991-.225-2.991Zm2.897-1.396 2.202 2.038.023-.026.023-.026-2.248-1.986Zm1.476-2.52-2.81-1.048-.012.03-.01.03 2.832.989Zm.122-.32 2.801 1.074-2.8-1.075Zm.048-.124.223-2.992-2.227-.166-.798 2.086 2.802 1.072Zm.327.025.224-2.992-.224 2.992Zm13.105.029.218 2.992-.218-2.992Zm.717-.052 2.82-1.025-.775-2.13-2.26.163.215 2.992Zm.004.012-2.82 1.024 2.82-1.024Zm.195.526 2.816-1.034-.009-.025-.01-.025-2.797 1.084Zm1.239 2.195-2.342 1.875.014.019.016.018 2.312-1.912Zm4.308 1.521-.615-2.936.615 2.936Zm3.113-2.741 2.87.876.014-.048.013-.048-2.897-.78Zm.355-1.787-2.959-.492-.009.053-.007.053 2.975.386Zm.062-.678-2.995-.165 2.995.165Zm.02-.314-.746-2.906-2.078.533-.167 2.139 2.991.234Zm.124-.034-.806-2.89.806 2.89Zm.183-.046.562 2.947h.004l-.566-2.947Zm6.702-1.697.905 2.86.025-.008.025-.008-.955-2.844Zm1.033-.259-.615-2.936.615 2.936Zm.479-.104 2.41-1.787-1.176-1.585-1.92.451.686 2.92Zm2.206 2.076-1.639 2.513.009.006.009.005 1.62-2.524Zm3.949 1.479.369-2.977-.041-.005-.042-.004-.286 2.986Zm3.546-1.322-2.151-2.09-.04.04-.04.044L90.2 90.83Zm.57-.911 2.822 1.017-2.822-1.017Zm.142-1.064-2.992.222.001.009v.009l2.991-.24Zm-3.767-1.62c.345.462.594.986.733 1.543l5.821-1.454a10.34 10.34 0 0 0-1.745-3.677l-4.809 3.588Zm1.182-4.548-.242.135 2.93 5.237.24-.135-2.928-5.237Zm.591-.322c-.182.098-.38.205-.58.316l2.906 5.25c.167-.093.337-.185.523-.285l-2.849-5.28Zm1.064-.596c-.314.19-.648.372-1.064.596l2.85 5.28c.392-.211.865-.466 1.335-.752l-3.12-5.124Zm7.837-6.917c-2.286 2.759-4.86 5.112-7.832 6.914l3.111 5.13c3.646-2.211 6.712-5.043 9.341-8.216l-4.62-3.828Zm7.376-19.214c-.272 7.242-2.739 13.618-7.376 19.214l4.62 3.828c5.467-6.596 8.429-14.235 8.752-22.817l-5.996-.225Zm-.52-6.67a30.27 30.27 0 0 1 .519 6.683l5.997.199a36.307 36.307 0 0 0-.622-8.005l-5.894 1.122Zm-5.138-12.895a35.31 35.31 0 0 1 5.135 12.875l5.901-1.084a41.316 41.316 0 0 0-6.007-15.063l-5.029 3.273Zm-.005-.008 5.039-3.257-5.04 3.257Zm-.467-.772c.16.29.335.565.451.748l5.07-3.209a9.243 9.243 0 0 1-.27-.441l-5.251 2.902Zm-3.179-4.812a32.71 32.71 0 0 1 3.166 4.789l5.277-2.857a38.71 38.71 0 0 0-3.747-5.667l-4.696 3.735Zm-1.224-1.408c.427.44.83.902 1.206 1.384l4.732-3.688a22.752 22.752 0 0 0-1.638-1.88l-4.3 4.184Zm-1.233-2.554a4.178 4.178 0 0 0 1.414 2.726l3.938-4.527c.347.302.569.727.616 1.19l-5.968.61Zm-.043-.593c.01.163.022.334.035.505l5.984-.436-.033-.476-5.986.407Zm-.112-1.365c.047.422.077.858.112 1.365l5.986-.407c-.033-.486-.071-1.051-.135-1.624l-5.963.666Zm-.445-3.492c.168 1.142.31 2.309.446 3.5l5.961-.682c-.139-1.21-.289-2.453-.471-3.693l-5.936.875Zm-.732-3.428c.307 1.25.572 2.34.732 3.427l5.936-.873c-.208-1.415-.545-2.78-.84-3.984l-5.828 1.43Zm-.236-.97.236.97 5.827-1.43c-.078-.318-.153-.626-.226-.933l-5.837 1.393Zm-2.228-6.984a41.537 41.537 0 0 1 2.22 6.946l5.853-1.317a47.53 47.53 0 0 0-2.54-7.95l-5.533 2.32Zm-1.219-2.563c.446.875.86 1.735 1.233 2.595l5.506-2.385a52.208 52.208 0 0 0-1.392-2.931l-5.347 2.721Zm-.506-.769c.202.263.383.542.54.834l5.28-2.85a12.255 12.255 0 0 0-1.057-1.633l-4.763 3.649Zm-.957-.34c.392-.043.575.01.64.034.038.015.132.053.277.252l4.843-3.541C91.05.489 88.65-.209 86.288.053l.662 5.964Zm-3.352.881a13.526 13.526 0 0 1 3.395-.885L86.245.058c-1.683.212-3.33.642-4.902 1.279l2.255 5.56Zm-10.915 6.247a43.325 43.325 0 0 1 10.886-6.236l-2.198-5.583a49.328 49.328 0 0 0-12.393 7.1l3.705 4.72Zm-1.508.742a3.784 3.784 0 0 0 1.67-.878l-4.03-4.446c.279-.252.615-.429.978-.515l1.382 5.839Zm-1.884-.036c.615.17 1.263.183 1.884.036l-1.382-5.839a2.212 2.212 0 0 1 1.1.021l-1.602 5.782Zm-6.879-1.099c2.297.159 4.6.601 7.035 1.138l1.291-5.86c-2.5-.55-5.156-1.073-7.912-1.264l-.414 5.986Zm-1.01-.071 1.012.071.41-5.986c-.328-.022-.658-.046-.993-.07l-.43 5.985Zm-3.72-.208c1.205.028 2.42.114 3.72.208l.43-5.985c-1.276-.091-2.636-.19-4.01-.222l-.14 5.999Zm-5.22.044c1.74-.07 3.48-.084 5.222-.044l.137-5.999a89.713 89.713 0 0 0-5.597.048l.238 5.995Zm-4.93.359a83.127 83.127 0 0 1 4.93-.36l-.238-5.995c-1.782.071-3.55.212-5.286.384l.594 5.97Zm-5.728 1.006c1.9-.453 3.827-.79 5.77-1.01l-.677-5.963a54.377 54.377 0 0 0-6.485 1.137l1.392 5.836Zm-1.666.035a3.71 3.71 0 0 0 1.854-.086l-1.768-5.734a2.29 2.29 0 0 1 1.145-.053l-1.231 5.873Zm-1.665-.825c.477.412 1.05.696 1.665.825l1.231-5.873c.38.08.735.255 1.03.51l-3.926 4.538Zm-9.888-5.813a43.875 43.875 0 0 1 9.997 5.903l3.708-4.717a49.872 49.872 0 0 0-11.364-6.71l-2.341 5.524Zm-4.293-1.26c1.372.153 2.753.61 4.295 1.26l2.337-5.525C29.17 1.01 27.169.3 24.95.055l-.66 5.964Zm-.95.3c.147-.207.243-.248.285-.265.068-.026.257-.08.658-.035l.672-5.962c-2.402-.271-4.849.452-6.508 2.79l4.893 3.472Zm-.776 1.254c.229-.432.486-.848.77-1.247l-4.881-3.488a16.96 16.96 0 0 0-1.192 1.93l5.303 2.805Zm-1.965 4.666a34.53 34.53 0 0 1 1.984-4.701l-5.341-2.735a40.525 40.525 0 0 0-2.328 5.518l5.685 1.918Zm-1.19 4.228c.38-1.52.724-2.888 1.181-4.203l-5.668-1.969c-.559 1.61-.964 3.239-1.334 4.715l5.82 1.457Zm-.235.933c.08-.313.158-.626.235-.933l-5.82-1.457-.23.912 5.815 1.479Zm-1.068 5.643c.216-1.893.57-3.769 1.06-5.61l-5.799-1.542a45.004 45.004 0 0 0-1.222 6.473l5.961.679Zm-.2 2.098c.066-.729.128-1.425.202-2.116l-5.965-.643c-.082.756-.149 1.508-.213 2.228l5.977.531Zm-.117 1.296c.041-.437.08-.872.118-1.296l-5.977-.531c-.038.427-.075.843-.114 1.257l5.973.57Zm-.878 2.275c.604-.75.921-1.692.89-2.657l-5.997.194a1.97 1.97 0 0 1 .435-1.3l4.672 3.763Zm-1.11 1.204c.253-.304.551-.616.907-.976l-4.267-4.219c-.377.382-.825.844-1.25 1.354l4.61 3.841Zm-3.077 4.343a33.202 33.202 0 0 1 3.073-4.339l-4.602-3.849a39.195 39.195 0 0 0-3.629 5.123l5.158 3.064Zm-.373.644c.132-.23.256-.445.38-.657l-5.172-3.04c-.142.24-.28.48-.41.706l5.202 2.99Zm-.86 1.452c.314-.502.604-1.006.86-1.452L7.152 31.91c-.266.463-.5.868-.744 1.259l5.085 3.184ZM6.037 53.358c.32-6.126 2.166-11.77 5.453-17l-5.08-3.193C2.601 39.225.422 45.855.045 53.044l5.992.314Zm.447 6.774a29.376 29.376 0 0 1-.447-6.781l-5.993-.3a35.376 35.376 0 0 0 .539 8.166l5.9-1.085Zm5.728 13.228a31.527 31.527 0 0 1-5.726-13.217L.58 61.206a37.527 37.527 0 0 0 6.815 15.733l4.816-3.58Zm4.606 5.056a35.255 35.255 0 0 1-4.61-5.062L7.4 76.944a41.256 41.256 0 0 0 5.395 5.923l4.023-4.451Zm5.997 4.234a26.559 26.559 0 0 1-5.96-4.2l-4.097 4.383a32.558 32.558 0 0 0 7.307 5.15l2.75-5.333Zm.627.403a5.48 5.48 0 0 0-.446-.301l-3.112 5.13a.551.551 0 0 1-.047-.032l3.605-4.797Zm.475 4.395.215-.327-4.985-3.34c-.1.149-.182.276-.256.389l5.026 3.278Zm-.625 1.489c.103-.52.308-1.016.604-1.458l-4.984-3.34a10.017 10.017 0 0 0-1.506 3.636l5.886 1.162Zm-.025-.036c.014.04.016.084.006.126l-5.848-1.343a5.767 5.767 0 0 0 .147 3.106l5.695-1.889Zm-.066-.099c.03.025.053.059.066.1l-5.695 1.888a5.778 5.778 0 0 0 1.736 2.578l3.893-4.566Zm.508.331a1.053 1.053 0 0 1-.4-.234L19.2 93.27a7.051 7.051 0 0 0 2.683 1.578l1.826-5.716Zm.467.041a1.066 1.066 0 0 1-.467-.04l-1.826 5.715c1 .32 2.06.412 3.1.27l-.807-5.945Zm3.708-1.878a6.031 6.031 0 0 1-3.674 1.874l.738 5.954a12.032 12.032 0 0 0 7.328-3.74l-4.392-4.088Zm.338-.383a7.617 7.617 0 0 1-.304.347l4.325 4.16c.228-.238.43-.48.562-.635l-4.583-3.872Zm.24-.28c-.089.101-.173.2-.24.28l4.583 3.872.183-.214-4.526-3.939Zm3.35-.863c-.158-.034-.28-.06-.395-.087l-1.385 5.838c.19.045.376.085.524.116l1.257-5.867Zm1.212.304c-.464-.146-.92-.241-1.211-.304l-1.257 5.867c.34.073.515.113.662.159l1.806-5.722Zm6.482 1.642a56.741 56.741 0 0 1-6.479-1.64l-1.813 5.719c2.35.745 4.742 1.35 7.164 1.814l1.128-5.893Zm.847.255a5.797 5.797 0 0 0-.66-.213l-1.502 5.809a.197.197 0 0 1-.022-.008l2.184-5.588Zm1.908 3.3v-.506h-6v.507h6Zm.303 1.464a5.019 5.019 0 0 1-.305-1.563l-5.996.199a11.02 11.02 0 0 0 .668 3.431l5.633-2.067Zm.251.358a.806.806 0 0 1-.247-.348l-5.64 2.047a6.806 6.806 0 0 0 2.086 2.944l3.801-4.643Zm.95.277a1.402 1.402 0 0 1-.98-.3l-3.741 4.69a7.403 7.403 0 0 0 5.17 1.593l-.45-5.983Zm.92-.442a1.396 1.396 0 0 1-.92.442l.449 5.983a7.396 7.396 0 0 0 4.874-2.35l-4.404-4.075Zm.845-1.47a4.577 4.577 0 0 1-.892 1.521l4.496 3.973a10.575 10.575 0 0 0 2.06-3.516l-5.664-1.978Zm.154-.408-.133.348 5.622 2.098.112-.296-5.601-2.15Zm.046-.12-.046.12 5.601 2.15.048-.125-5.603-2.145Zm3.353-1.895-.328-.025-.447 5.984.327.024.448-5.983Zm6.531.328c-2.125 0-4.257-.158-6.53-.328l-.449 5.983c2.237.168 4.592.345 6.98.345v-6Zm6.132-.3c-2.129.156-4.134.3-6.132.3v6c2.252 0 4.475-.163 6.568-.315l-.436-5.984Zm.72-.051-.72.052.436 5.984.714-.052-.43-5.984Zm3.039 1.98-.005-.013-5.639 2.05.004.011 5.64-2.049Zm.173.466c-.05-.127-.097-.258-.174-.468l-5.638 2.05c.071.197.14.39.217.586l5.595-2.168Zm.783 1.405a4.837 4.837 0 0 1-.765-1.355l-5.632 2.068a10.838 10.838 0 0 0 1.713 3.036l4.684-3.75Zm1.35.459c-.417.087-.642.041-.764-.002-.125-.044-.336-.156-.616-.494l-4.624 3.823c.849 1.027 1.92 1.859 3.231 2.325 1.314.467 2.678.498 4.004.22l-1.23-5.872Zm.86-.682c-.085.279-.183.38-.239.428-.068.06-.237.173-.62.254l1.23 5.872c2.492-.521 4.54-2.095 5.367-4.8l-5.738-1.754Zm.25-1.296c-.062.47-.154.935-.277 1.392l5.793 1.561c.193-.716.338-1.445.433-2.18l-5.95-.773Zm.041-.457c-.014.258-.02.32-.026.35l5.919.986c.068-.412.087-.807.098-1.005l-5.991-.33Zm.024-.383c-.011.144-.019.284-.024.383l5.99.33.016-.245-5.982-.468Zm2.309-2.69-.064.018 1.492 5.811c.08-.02.148-.04.183-.05l-1.611-5.779Zm.428-.103c-.205.04-.385.091-.428.103l1.611 5.78.034-.01h.002c-.01.002-.045.011-.096.021l-1.123-5.894Zm6.358-1.61a56.345 56.345 0 0 1-6.362 1.611l1.131 5.892a62.337 62.337 0 0 0 7.04-1.783l-1.809-5.72Zm1.323-.335c-.32.067-.841.172-1.373.351l1.91 5.688c.141-.048.315-.087.693-.167l-1.23-5.872Zm.407-.089a17.45 17.45 0 0 1-.407.089l1.23 5.872c.154-.032.35-.073.55-.12l-1.373-5.84Zm4.531 2.484a5.576 5.576 0 0 1-1.434-1.35l-4.82 3.573a11.575 11.575 0 0 0 2.977 2.803l3.277-5.026Zm2.597 1.006c-.828-.08-1.664-.407-2.614-1.017l-3.242 5.048c1.467.943 3.215 1.743 5.283 1.941l.573-5.972Zm.602-.052a1.1 1.1 0 0 1-.52.06l-.737 5.955a7.102 7.102 0 0 0 3.353-.393l-2.096-5.622Zm.428-.29a1.084 1.084 0 0 1-.428.29l2.096 5.622a7.085 7.085 0 0 0 2.793-1.9l-4.461-4.012Zm-.022.077a.453.453 0 0 1 .1-.162l4.303 4.182a5.546 5.546 0 0 0 1.241-1.985l-5.644-2.035Zm-.026.194a.463.463 0 0 1 .026-.194l5.644 2.035a5.539 5.539 0 0 0 .31-2.321l-5.98.48Zm-.054-.357c.026.111.044.225.052.339l5.984-.444a8.18 8.18 0 0 0-.195-1.27l-5.84 1.375Z" fill="#1ABBDE" mask="url(#a)"/><path fill-rule="evenodd" clip-rule="evenodd" d="M35.5 61.402a3 3 0 0 0 3 5.197l16.687-9.634 16.687 9.634a3 3 0 0 0 3-5.197l-13.687-7.901 13.687-7.902a3 3 0 0 0-3-5.197l-16.687 9.634-16.686-9.634a3 3 0 0 0-3 5.197L49.187 53.5l-13.686 7.901Z" fill="#1ABBDE"/></svg>