<svg viewBox="0 0 205 31" fill="none" xmlns="http://www.w3.org/2000/svg"><path fill-rule="evenodd" clip-rule="evenodd" d="M166.167 6.276c-1.251-.546-2.936-.11-3.765.975-.828 1.085-.486 2.408.765 2.954l14.02 6.12-14.02 6.12c-1.251.546-1.593 1.868-.765 2.953.829 1.085 2.514 1.521 3.765.975l17.02-7.43 17.019 7.43c1.251.546 2.937.11 3.765-.975.829-1.085.486-2.407-.765-2.953l-14.019-6.12 14.019-6.12c1.251-.546 1.594-1.869.765-2.954-.828-1.084-2.514-1.521-3.765-.975l-17.019 7.43-17.02-7.43Z" fill="#1ABBDE"/><path d="M14.212 28.408c-2.425 0-4.624-.521-6.596-1.564-1.95-1.065-3.49-2.527-4.624-4.386-1.11-1.881-1.666-4-1.666-6.358 0-2.357.555-4.465 1.666-6.324A11.791 11.791 0 0 1 7.616 5.39c1.972-1.065 4.182-1.598 6.63-1.598 2.063 0 3.921.363 5.576 1.088 1.677.725 3.083 1.768 4.216 3.128l-3.536 3.264c-1.61-1.859-3.604-2.788-5.984-2.788-1.473 0-2.788.329-3.944.986a6.888 6.888 0 0 0-2.72 2.686c-.635 1.156-.952 2.47-.952 3.944 0 1.473.317 2.788.952 3.944a7.126 7.126 0 0 0 2.72 2.72c1.156.635 2.47.952 3.944.952 2.38 0 4.375-.94 5.984-2.822l3.536 3.264a11.021 11.021 0 0 1-4.216 3.162c-1.677.725-3.547 1.088-5.61 1.088ZM29.117 4.2h5.509v19.312H46.56V28H29.116V4.2Zm33.008 24.208c-2.471 0-4.704-.533-6.698-1.598-1.972-1.065-3.525-2.527-4.658-4.386-1.111-1.881-1.666-3.99-1.666-6.324 0-2.335.555-4.431 1.666-6.29 1.133-1.881 2.686-3.355 4.658-4.42 1.994-1.065 4.227-1.598 6.698-1.598 2.47 0 4.692.533 6.664 1.598 1.972 1.065 3.524 2.539 4.658 4.42 1.133 1.859 1.7 3.955 1.7 6.29s-.567 4.443-1.7 6.324c-1.134 1.859-2.686 3.32-4.658 4.386-1.972 1.065-4.194 1.598-6.664 1.598Zm0-4.692c1.405 0 2.674-.317 3.808-.952a6.953 6.953 0 0 0 2.652-2.72c.657-1.156.986-2.47.986-3.944 0-1.473-.329-2.788-.986-3.944a6.72 6.72 0 0 0-2.652-2.686c-1.134-.657-2.403-.986-3.808-.986-1.406 0-2.675.329-3.808.986a6.953 6.953 0 0 0-2.686 2.686c-.635 1.156-.952 2.47-.952 3.944 0 1.473.317 2.788.952 3.944a7.198 7.198 0 0 0 2.686 2.72c1.133.635 2.402.952 3.808.952Zm26.341 4.692c-1.881 0-3.706-.25-5.474-.748-1.745-.521-3.15-1.19-4.216-2.006l1.87-4.148c1.02.748 2.233 1.349 3.638 1.802 1.405.453 2.81.68 4.216.68 1.564 0 2.72-.227 3.468-.68.748-.476 1.122-1.1 1.122-1.87 0-.567-.227-1.031-.68-1.394-.43-.385-.997-.691-1.7-.918-.68-.227-1.61-.476-2.788-.748-1.813-.43-3.298-.861-4.454-1.292a7.366 7.366 0 0 1-2.992-2.074c-.816-.952-1.224-2.221-1.224-3.808 0-1.383.374-2.63 1.122-3.74.748-1.133 1.87-2.029 3.366-2.686 1.519-.657 3.366-.986 5.542-.986 1.519 0 3.004.181 4.454.544 1.45.363 2.72.884 3.808 1.564l-1.7 4.182c-2.198-1.247-4.397-1.87-6.596-1.87-1.541 0-2.686.25-3.434.748-.725.499-1.088 1.156-1.088 1.972 0 .816.42 1.428 1.258 1.836.862.385 2.165.77 3.91 1.156 1.813.43 3.298.861 4.454 1.292a7.245 7.245 0 0 1 2.958 2.04c.839.93 1.258 2.187 1.258 3.774a6.51 6.51 0 0 1-1.156 3.74c-.748 1.11-1.881 1.995-3.4 2.652-1.518.657-3.366.986-5.542.986Zm33.65-4.828V28h-18.428V4.2h17.986v4.42h-12.512v5.168h11.05v4.284h-11.05v5.508h12.954Z" fill="#1ABBDE"/></svg>